<svg width="93" height="93" viewBox="0 0 93 93" fill="none" xmlns="http://www.w3.org/2000/svg">
<circle cx="46.5" cy="46.5" r="45.5" fill="white" stroke="#EF5DA8" stroke-width="2"/>
<path d="M66.1624 36.5852C66.1624 21.8297 58.4816 11 46.282 11C34.1501 11 26.4885 21.7099 26.4035 36.3398C25.9588 36.2384 25.4968 36.1832 25.0219 36.1832C21.5757 36.1832 18.782 38.9991 18.782 42.4726C18.782 45.3265 20.6685 47.7349 23.2526 48.5039C23.3128 51.9251 26.0812 54.6801 29.4896 54.6801C30.5315 54.6801 31.5127 54.4215 32.3759 53.9664C33.2731 56.3307 35.5438 58.0104 38.2048 58.0104C41.6509 58.0104 44.4447 55.1945 44.4447 51.721C44.4447 51.2133 44.3834 50.7205 44.2708 50.2476C52.192 50.553 60.551 49.0487 64.1578 45.7344C68.9001 41.3772 66.1624 40.5584 66.1624 36.5852Z" fill="#682234"/>
<path d="M73.782 42.4726C73.782 38.9991 70.9882 36.1832 67.542 36.1832C67.0669 36.1832 66.605 36.2384 66.1604 36.3398C66.0754 21.7099 58.4136 11 46.282 11C46.2762 11 46.2706 11.0002 46.2651 11.0002V50.2866C46.9421 50.2867 47.6192 50.2737 48.293 50.2478C48.1803 50.7207 48.1191 51.2135 48.1191 51.7211C48.1191 55.1946 50.9128 58.0105 54.359 58.0105C57.0202 58.0105 59.2908 56.3309 60.1878 53.9665C61.0512 54.4215 62.0325 54.6803 63.0741 54.6803C66.4828 54.6803 69.251 51.9252 69.3112 48.5041C71.8954 47.7349 73.782 45.3265 73.782 42.4726Z" fill="#581A2B"/>
<path d="M51.3723 43.7367H46.5416H46.3159H46.2478H46.0221H41.1915C41.1915 57.2388 34.6455 56.0174 34.6455 56.0174C34.6455 64.5962 43.8386 67.3172 46.0219 68.1166V68.395C46.0219 68.395 46.1177 68.3751 46.2818 68.33C46.4456 68.3751 46.5416 68.395 46.5416 68.395V68.1166C48.725 67.3172 57.918 64.596 57.918 56.0174C57.918 56.0174 51.3723 57.2388 51.3723 43.7367Z" fill="#F3D8B6"/>
<path d="M51.3722 43.7367H46.5415H46.3159H46.2819V68.33C46.4458 68.3751 46.5417 68.395 46.5417 68.395V68.1166C48.7251 67.3172 57.9182 64.596 57.9182 56.0174C57.9182 56.0174 51.3722 57.2388 51.3722 43.7367Z" fill="#EEC8A2"/>
<path d="M67.3018 68.5937V75.9614H25.262V68.5937C25.262 63.0823 27.8453 58.2771 32.0191 55.7507C33.1049 55.0912 34.2993 54.5861 35.5848 54.2663C36.6544 53.9968 37.7866 53.8548 38.9704 53.8548L46.282 58.2018L53.5936 53.8548C54.7774 53.8548 55.9095 53.9968 56.9792 54.2663C58.2647 54.5861 59.4592 55.0911 60.5449 55.7507C64.7185 58.2771 67.3018 63.0823 67.3018 68.5937Z" fill="#F3D8B6"/>
<path d="M67.3017 68.5939V75.9614H46.2821V58.2018L52.7507 54.3568L53.5935 53.8552C54.7776 53.8552 55.9096 53.9964 56.9787 54.2663C58.2653 54.5868 59.4584 55.0903 60.5455 55.7514C64.7178 58.2779 67.3017 63.0827 67.3017 68.5939Z" fill="#EEC8A2"/>
<path d="M46.4446 32.901H34.7672C34.9182 36.9154 35.5488 40.546 36.2816 41.9094C37.9063 44.9328 41.5322 48.9649 46.2824 48.9649C51.0317 48.9649 54.657 44.933 56.2822 41.9094C57.0148 40.546 57.6457 36.9154 57.7968 32.901H46.4446Z" fill="#F3DBC4"/>
<path d="M46.4446 32.9007H46.265V48.9641C46.2707 48.9641 46.2765 48.9645 46.2822 48.9645C51.0315 48.9645 54.6568 44.9324 56.2821 41.909C57.0147 40.5456 57.6455 36.9152 57.7966 32.9005L46.4446 32.9007Z" fill="#EDCEAE"/>
<path d="M54.4549 59.5188H53.9239C52.6465 62.3997 49.787 64.4075 46.4617 64.4075C41.9464 64.4075 38.286 60.7074 38.286 56.1431C38.286 55.3348 38.4028 54.5544 38.6168 53.816C37.5601 53.8412 36.5461 53.9788 35.5834 54.2219C34.2968 54.5424 33.1037 55.0459 32.0166 55.707C27.8443 58.2335 25.2604 63.0383 25.2604 68.5495V69.6307H31.9638L31.9088 69.7213V75.9998H60.6585V69.7213L54.4549 59.5188Z" fill="#AEC7EA"/>
<path d="M67.3035 68.5497C67.3035 63.0385 64.7196 58.2336 60.5473 55.7072C59.4602 55.0461 58.2671 54.5426 56.9806 54.2221C56.1289 54.0071 55.2365 53.8752 54.3104 53.83C54.5219 54.5644 54.6375 55.3401 54.6375 56.1433C54.6375 60.7076 50.9771 64.4077 46.4618 64.4077C46.4021 64.4077 46.3432 64.4044 46.2839 64.4032V76H60.6587V69.7214L60.6038 69.6309H67.3035V68.5497Z" fill="#96B3D4"/>
</svg>
