<svg width="400" height="113" viewBox="0 0 400 113" fill="none" xmlns="http://www.w3.org/2000/svg">
<path d="M27.4081 110.414H0V13.3677H54.6506V34.4827L27.4081 32.8266V55.3493H49.7652V75.8846L27.4081 74.2286V110.414Z" fill="#FCDDEC"/>
<path d="M61.3752 110.414V16.7626L56.407 13.7817V6.08092L82.987 1.94072H88.3693V110.414H61.3752Z" fill="#FCDDEC"/>
<path d="M136.581 67.6042C136.581 60.5935 136.222 55.6253 135.505 52.6995C134.787 49.7738 133.462 48.3109 131.53 48.3109C129.874 48.3109 128.522 48.6145 127.473 49.2218C126.424 49.7738 125.651 50.6846 125.154 51.9543C124.657 53.1688 124.326 54.4384 124.161 55.7633C124.05 57.0329 123.995 58.6614 123.995 60.6487V67.6042H136.581ZM129.957 112.153C123.774 112.153 118.392 111.214 113.81 109.337C109.284 107.461 105.695 104.838 103.046 101.471C100.451 98.1037 98.5466 94.3223 97.3322 90.1269C96.1177 85.8763 95.5105 81.1565 95.5105 75.9674C95.5105 63.6021 98.657 54.2452 104.95 47.8969C111.243 41.5486 120.048 38.3745 131.365 38.3745C142.24 38.3745 150.023 40.9414 154.715 46.0752C159.408 51.1539 161.754 59.3515 161.754 70.668V79.8592H123.912V81.4325C123.912 84.6895 124.243 87.3668 124.906 89.4645C125.624 91.5622 126.645 93.1079 127.97 94.1015C129.294 95.0952 130.647 95.7576 132.027 96.0888C133.407 96.42 135.091 96.5856 137.078 96.5856C139.01 96.5856 141.08 96.3372 143.288 95.8404C145.552 95.3436 147.815 94.5707 150.078 93.5219C152.397 92.473 154.329 91.231 155.875 89.7957L160.76 98.1589C158.717 101.471 155.709 104.259 151.734 106.522C147.815 108.73 144.034 110.221 140.39 110.994C136.747 111.766 133.269 112.153 129.957 112.153Z" fill="#FCDDEC"/>
<path d="M190.1 112.153C182.647 112.153 177.431 109.917 174.45 105.446C171.524 100.974 170.061 93.4115 170.061 82.7574V54.604H164.348V43.0943L174.119 40.0305L182.565 20.7372H197.138V40.0305H210.718V54.604H196.89V85.4071C196.89 89.8233 197.525 92.749 198.794 94.1843C200.064 95.6196 202.024 96.3372 204.673 96.3372C205.833 96.3372 206.881 96.1992 207.82 95.9232C208.758 95.6472 209.531 95.2608 210.138 94.7639V106.025C209.31 106.853 208.234 107.681 206.909 108.509C205.584 109.282 203.376 110.083 200.285 110.911C197.248 111.739 193.854 112.153 190.1 112.153Z" fill="#FCDDEC"/>
<path d="M244.774 110.414H218.029V56.8397L213.06 53.776V44.916L230.863 40.0305H244.94V50.7122L245.934 49.4702C246.596 48.5869 247.562 47.5381 248.832 46.3236C250.157 45.1092 251.619 43.9223 253.22 42.7631C254.821 41.5486 256.726 40.5274 258.934 39.6993C261.197 38.8161 263.405 38.3745 265.558 38.3745C273.121 38.3745 278.448 40.4446 281.539 44.5848C284.686 48.7249 286.259 55.6529 286.259 65.3685C286.259 65.6998 286.259 66.1966 286.259 66.859C286.204 67.5214 286.176 68.0459 286.176 68.4323V110.414H258.851V66.031C259.017 60.8419 256.808 58.2474 252.227 58.2474C251.895 58.2474 251.564 58.275 251.233 58.3302C250.957 58.3854 250.681 58.4406 250.405 58.4958C250.184 58.551 249.908 58.6614 249.577 58.827C249.301 58.9374 249.053 59.0478 248.832 59.1582C248.611 59.2134 248.362 59.3515 248.086 59.5723C247.81 59.7379 247.59 59.8759 247.424 59.9863C247.258 60.0967 247.01 60.2899 246.679 60.5659C246.403 60.7867 246.182 60.9523 246.016 61.0627C245.906 61.1731 245.685 61.3663 245.354 61.6424C245.078 61.8632 244.885 62.0288 244.774 62.1392V110.414Z" fill="#FCDDEC"/>
<path d="M296.628 110.414V56.8397L291.659 53.776V44.916L309.462 40.0305H323.291V110.414H296.628ZM308.634 32.4126L295.054 18.7499V15.8518L308.634 2.27193H311.781L325.94 15.8518V18.7499L311.781 32.4126H308.634Z" fill="#FCDDEC"/>
<path d="M350.281 110.414H327.759L345.727 75.8846L326.517 40.0305H358.396L365.683 58.7442L374.295 40.0305H396.9L378.352 73.6489L398.059 110.414H366.677L358.396 90.7894L350.281 110.414Z" fill="#FCDDEC"/>
<path d="M29.3488 108.473H1.94072V11.4269H56.5913V32.542L29.3488 30.8859V53.4085H51.7059V73.9439L29.3488 72.2878V108.473Z" fill="#EF5DA8"/>
<path d="M63.3159 108.473V14.8219L58.3477 11.841V4.1402L84.9277 0H90.31V108.473H63.3159Z" fill="#EF5DA8"/>
<path d="M138.522 65.6635C138.522 58.6528 138.163 53.6846 137.445 50.7588C136.728 47.8331 135.403 46.3702 133.471 46.3702C131.815 46.3702 130.462 46.6738 129.414 47.2811C128.365 47.8331 127.592 48.7439 127.095 50.0136C126.598 51.228 126.267 52.4977 126.101 53.8226C125.991 55.0922 125.936 56.7207 125.936 58.708V65.6635H138.522ZM131.898 110.212C125.715 110.212 120.333 109.274 115.751 107.397C111.224 105.52 107.636 102.898 104.986 99.5303C102.392 96.163 100.487 92.3816 99.2729 88.1862C98.0584 83.9356 97.4512 79.2158 97.4512 74.0267C97.4512 61.6613 100.598 52.3045 106.891 45.9562C113.184 39.6079 121.989 36.4337 133.305 36.4337C144.18 36.4337 151.964 39.0007 156.656 44.1345C161.348 49.2131 163.694 57.4107 163.694 68.7273V77.9185H125.853V79.4918C125.853 82.7487 126.184 85.4261 126.847 87.5238C127.564 89.6215 128.585 91.1671 129.91 92.1608C131.235 93.1544 132.588 93.8169 133.968 94.1481C135.348 94.4793 137.031 94.6449 139.019 94.6449C140.951 94.6449 143.021 94.3965 145.229 93.8997C147.492 93.4028 149.756 92.63 152.019 91.5812C154.338 90.5323 156.27 89.2903 157.815 87.855L162.701 96.2182C160.658 99.5303 157.65 102.318 153.675 104.581C149.756 106.789 145.974 108.28 142.331 109.053C138.688 109.826 135.21 110.212 131.898 110.212Z" fill="#EF5DA8"/>
<path d="M192.04 110.212C184.588 110.212 179.371 107.976 176.391 103.505C173.465 99.0335 172.002 91.4708 172.002 80.8166V52.6633H166.288V41.1536L176.059 38.0898L184.505 18.7965H199.079V38.0898H212.659V52.6633H198.83V83.4664C198.83 87.8826 199.465 90.8083 200.735 92.2436C202.005 93.6789 203.964 94.3965 206.614 94.3965C207.773 94.3965 208.822 94.2585 209.761 93.9825C210.699 93.7065 211.472 93.32 212.079 92.8232V104.085C211.251 104.913 210.175 105.741 208.85 106.569C207.525 107.342 205.317 108.142 202.225 108.97C199.189 109.798 195.794 110.212 192.04 110.212Z" fill="#EF5DA8"/>
<path d="M246.715 108.473H219.969V54.899L215.001 51.8353V42.9752L232.804 38.0898H246.881V48.7715L247.874 47.5295C248.537 46.6462 249.503 45.5974 250.772 44.3829C252.097 43.1685 253.56 41.9816 255.161 40.8223C256.762 39.6079 258.666 38.5866 260.874 37.7586C263.138 36.8754 265.346 36.4337 267.499 36.4337C275.062 36.4337 280.389 38.5038 283.48 42.644C286.627 46.7842 288.2 53.7122 288.2 63.4278C288.2 63.759 288.2 64.2559 288.2 64.9183C288.145 65.5807 288.117 66.1052 288.117 66.4916V108.473H260.792V64.0903C260.957 58.9012 258.749 56.3067 254.167 56.3067C253.836 56.3067 253.505 56.3343 253.174 56.3895C252.898 56.4447 252.622 56.4999 252.346 56.5551C252.125 56.6103 251.849 56.7207 251.518 56.8863C251.242 56.9967 250.993 57.1071 250.772 57.2175C250.552 57.2727 250.303 57.4107 250.027 57.6315C249.751 57.7972 249.53 57.9352 249.365 58.0456C249.199 58.156 248.951 58.3492 248.619 58.6252C248.343 58.846 248.123 59.0116 247.957 59.122C247.847 59.2324 247.626 59.4256 247.295 59.7016C247.019 59.9225 246.825 60.0881 246.715 60.1985V108.473Z" fill="#EF5DA8"/>
<path d="M298.568 108.473V54.899L293.6 51.8353V42.9752L311.403 38.0898H325.231V108.473H298.568ZM310.575 30.4718L296.995 16.8092V13.9111L310.575 0.331214H313.722L327.881 13.9111V16.8092L313.722 30.4718H310.575Z" fill="#EF5DA8"/>
<path d="M352.222 108.473H329.699L347.668 73.9439L328.457 38.0898H360.337L367.624 56.8035L376.235 38.0898H398.841L380.293 71.7082L400 108.473H368.617L360.337 88.8486L352.222 108.473Z" fill="#EF5DA8"/>
</svg>
