<svg width="93" height="93" viewBox="0 0 93 93" fill="none" xmlns="http://www.w3.org/2000/svg">
<circle cx="46.5" cy="46.5" r="45.5" fill="white" stroke="#EF5DA8" stroke-width="2"/>
<g clip-path="url(#clip0_2_1257)">
<path d="M61.7356 46.7109C65.777 42.3566 63.4437 41.5385 63.4437 37.568C63.4437 22.8223 56.8975 12 46.5 12C36.1025 12 29.5563 22.8223 29.5563 37.5678C29.5563 41.5383 27.223 42.3564 31.2644 46.7108C36.8938 52.7764 56.1062 52.7764 61.7356 46.7109Z" fill="#545465"/>
<path d="M63.4437 37.5678C63.4437 22.8223 56.8975 12 46.5 12C46.4979 12 46.4957 12 46.4936 12V51.2599C52.7061 51.2609 58.9199 49.7446 61.7356 46.7108C65.777 42.3566 63.4437 41.5383 63.4437 37.5678Z" fill="#494857"/>
<path d="M64.4149 69.5546V76.9173H28.5851V69.5546C28.5851 64.047 30.7868 59.245 34.344 56.7203C35.2694 56.0613 36.2874 55.5565 37.383 55.2369C38.2946 54.9676 39.2596 54.8257 40.2685 54.8257L46.5 59.1697L52.7315 54.8257C53.7404 54.8257 54.7054 54.9676 55.617 55.2369C56.7126 55.5565 57.7307 56.0611 58.656 56.7203C62.2131 59.245 64.4149 64.047 64.4149 69.5546Z" fill="#F3D8B6"/>
<path d="M58.656 56.7201C57.7306 56.0611 56.7126 55.5565 55.617 55.2367C54.7054 54.9672 53.7404 54.8255 52.7315 54.8255L46.5 59.1694L46.4936 59.165V76.9171H64.4148V69.5544C64.4149 64.047 62.2131 59.245 58.656 56.7201Z" fill="#EEC8A2"/>
<path d="M64.4162 69.5547V70.6352H52.0147C52.0147 70.6352 57.7315 56.0604 58.658 56.721C62.214 59.2457 64.4162 64.0473 64.4162 69.5547Z" fill="#C85279"/>
<path d="M28.5838 69.5547V70.6352H40.9853C40.9853 70.6352 35.2685 56.0604 34.342 56.721C30.786 59.2457 28.5838 64.0473 28.5838 69.5547Z" fill="#FF628B"/>
<path d="M50.8384 44.7147H46.7213H46.5289H46.4709H46.2786H42.1615C42.1615 58.2076 36.5825 56.987 36.5825 56.987C36.5825 65.56 44.4176 68.2792 46.2784 69.078V69.3562C46.2784 69.3562 46.36 69.3363 46.4998 69.2912C46.6395 69.3363 46.7213 69.3562 46.7213 69.3562V69.078C48.5821 68.2792 56.4172 65.5598 56.4172 56.987C56.4172 56.987 50.8384 58.2074 50.8384 44.7147Z" fill="#F3D8B6"/>
<path d="M50.8384 44.7145H46.7213H46.5289H46.4936V69.2932C46.4959 69.2925 46.4975 69.292 46.5 69.2912C46.6397 69.3363 46.7214 69.3562 46.7214 69.3562V69.078C48.5823 68.2792 56.4174 65.5598 56.4174 56.987C56.4174 56.987 50.8384 58.2074 50.8384 44.7145Z" fill="#EEC8A2"/>
<path d="M36.6862 33.8859C36.8148 37.8976 37.3523 41.5255 37.9768 42.8882C39.3616 45.9095 42.4518 49.9387 46.5003 49.9387C50.548 49.9387 53.6378 45.9095 55.023 42.8882C55.6474 41.5257 56.1851 37.8978 56.3139 33.8859H36.6862Z" fill="#F3DBC4"/>
<path d="M46.4936 33.8859V49.9385C46.4959 49.9385 46.498 49.9387 46.5002 49.9387C50.5479 49.9387 53.6377 45.9095 55.0229 42.888C55.6472 41.5255 56.1849 37.8976 56.3137 33.8857L46.4936 33.8859Z" fill="#EDCEAE"/>
<path d="M28.5838 69.5547V70.6352H40.9853C40.9853 70.6352 35.2685 56.0604 34.342 56.721C30.786 59.2457 28.5838 64.0473 28.5838 69.5547Z" fill="#FF628B"/>
<path d="M56.5269 61.9781H36.4731L34.2486 70.7257V77H58.7514V70.7257L56.5269 61.9781Z" fill="#FF628B"/>
<path d="M64.4162 69.5547V70.6352H52.0147C52.0147 70.6352 57.7315 56.0604 58.658 56.721C62.214 59.2457 64.4162 64.0473 64.4162 69.5547Z" fill="#C85279"/>
<path d="M56.5269 61.9781H46.4936V77H58.7514V70.7257L56.5269 61.9781Z" fill="#C85279"/>
<path d="M46.5 74.1641C47.2189 74.1641 47.8017 73.4754 47.8017 72.6257C47.8017 71.7761 47.2189 71.0873 46.5 71.0873C45.7811 71.0873 45.1983 71.7761 45.1983 72.6257C45.1983 73.4754 45.7811 74.1641 46.5 74.1641Z" fill="white"/>
<path d="M46.5 71.0873C46.4979 71.0873 46.4957 71.0877 46.4936 71.0877V74.1638C46.4957 74.1638 46.4979 74.1641 46.5 74.1641C47.2189 74.1641 47.8017 73.4753 47.8017 72.6257C47.8017 71.7762 47.2189 71.0873 46.5 71.0873Z" fill="#DEDDE0"/>
<path d="M46.5 67.7568C47.2189 67.7568 47.8017 67.0681 47.8017 66.2184C47.8017 65.3688 47.2189 64.6801 46.5 64.6801C45.7811 64.6801 45.1983 65.3688 45.1983 66.2184C45.1983 67.0681 45.7811 67.7568 46.5 67.7568Z" fill="white"/>
<path d="M46.5 64.6801C46.4979 64.6801 46.4957 64.6804 46.4936 64.6804V67.7565C46.4957 67.7565 46.4979 67.7568 46.5 67.7568C47.2189 67.7568 47.8017 67.068 47.8017 66.2184C47.8017 65.3687 47.2189 64.6801 46.5 64.6801Z" fill="#DEDDE0"/>
</g>
<defs>
<clipPath id="clip0_2_1257">
<rect width="55" height="65" fill="white" transform="translate(19 12)"/>
</clipPath>
</defs>
</svg>
