<svg width="93" height="93" viewBox="0 0 93 93" fill="none" xmlns="http://www.w3.org/2000/svg">
<circle cx="46.5" cy="46.5" r="45.5" fill="white" stroke="#EF5DA8" stroke-width="2"/>
<g clip-path="url(#clip0_2_1258)">
<path d="M60.6047 59.8532C57.4397 58.5144 51.88 57.5015 51.88 43.5471H46.924H46.0759H41.1199C41.1199 57.5015 35.5601 58.5144 32.3951 59.8532C32.3951 69.3447 44.0657 69.6365 46.0759 70.5212V70.8291C46.0759 70.8291 46.2322 70.7915 46.4999 70.6929C46.7676 70.7915 46.924 70.8291 46.924 70.8291V70.5212C48.9342 69.6367 60.6047 69.3447 60.6047 59.8532Z" fill="#F3D8B6"/>
<path d="M51.88 43.5473H46.924H46.5142V70.6981C46.7729 70.7927 46.924 70.8291 46.924 70.8291V70.5212C48.9342 69.6365 60.6047 69.3447 60.6047 59.8532C57.4397 58.5146 51.88 57.5017 51.88 43.5473Z" fill="#EEC8A2"/>
<path d="M46.5003 47.9881C41.8454 47.9881 38.2924 43.3555 36.7003 39.8816C35.1083 36.4076 34.0065 23.9625 37.4362 18.4616C40.7947 13.0748 46.5003 15.6888 46.5003 15.6888C46.5003 15.6888 52.2055 13.0748 55.5641 18.4616C58.9935 23.9625 57.8914 36.4076 56.2992 39.8816C54.7067 43.3555 51.1543 47.9881 46.5003 47.9881Z" fill="#F3DBC4"/>
<path d="M55.5643 18.4616C52.2991 13.2251 46.8175 15.5487 46.5142 15.6826V47.9877C51.1612 47.9785 54.7084 43.3519 56.2993 39.8816C57.8914 36.4076 58.9937 23.9627 55.5643 18.4616Z" fill="#EDCEAE"/>
<path d="M58.6339 35.1345C59.2042 33.3559 58.9532 31.5947 58.0733 31.2007C57.1935 30.8067 56.018 31.9292 55.4478 33.7078C54.8776 35.4864 55.1286 37.2476 56.0084 37.6415C56.8882 38.0355 58.0637 36.9131 58.6339 35.1345Z" fill="#EDCEAE"/>
<path d="M34.3648 35.1339C34.935 36.9125 36.1105 38.035 36.9903 37.641C37.8701 37.247 38.1211 35.4858 37.5509 33.7072C36.9807 31.9286 35.8052 30.8062 34.9254 31.2002C34.0455 31.5941 33.7945 33.3553 34.3648 35.1339Z" fill="#F3DBC4"/>
<path d="M53.6201 32.403H48.9254C48.7244 32.403 48.5259 32.4517 48.3436 32.5459L46.4999 33.322L44.6562 32.5459C44.4739 32.4517 44.2754 32.403 44.0745 32.403H39.3799C38.4459 32.403 38.1234 34.3014 38.1234 34.3014C38.1234 36.8126 39.6817 38.8484 42.1513 38.8484C43.6572 38.8484 45.103 36.9568 45.9914 35.4257H47.0087C47.8972 36.9568 49.3431 38.8484 50.8489 38.8484C53.3184 38.8484 54.8768 36.8126 54.8768 34.3014C54.8768 34.3014 54.5543 32.403 53.6201 32.403Z" fill="#A7B8D4"/>
<path d="M53.6201 32.403H48.9254C48.7244 32.403 48.5259 32.4517 48.3436 32.5459L46.514 33.316V35.4257H47.0086C47.897 36.9568 49.343 38.8484 50.8488 38.8484C53.3183 38.8484 54.8766 36.8126 54.8766 34.3014C54.8766 34.3014 54.5543 32.403 53.6201 32.403Z" fill="#8AA4C2"/>
<path d="M56.0614 17.6293C55.6952 17.6331 51.7431 15.0001 49.0451 14.3521C45.8633 13.5878 45.8614 14.2461 44.6333 14.6558C41.7789 12.1814 34.7139 19.5954 34.7139 21.1271C34.7139 28.5636 34.2446 29.2819 35.0047 31.8766C35.7648 34.4713 36.4401 36.5669 36.4401 36.5669C36.4401 36.5669 36.9467 38.5344 36.9467 34.4234C36.9467 23.2337 37.4223 33.7073 53.9034 25.0984C57.1515 23.4018 55.4539 29.098 55.7917 33.1895C56.1294 37.2811 56.2983 36.5667 56.2983 36.5667C56.2983 36.5667 56.9738 34.4711 57.7337 31.8764C58.4938 29.2819 59.3426 17.5952 56.0614 17.6293Z" fill="#A0756F"/>
<path d="M56.0614 17.6293C55.6952 17.6331 51.7431 15.0001 49.0451 14.3521C47.805 14.0541 47.0489 13.9729 46.514 14.0082V28.1161C48.5257 27.5641 50.9576 26.6371 53.9032 25.0984C57.1513 23.4018 55.4538 29.098 55.7915 33.1895C56.1293 37.2811 56.2981 36.5667 56.2981 36.5667C56.2981 36.5667 56.9736 34.4711 57.7336 31.8764C58.4938 29.2819 59.3426 17.5952 56.0614 17.6293Z" fill="#8C6762"/>
<path d="M56.1735 58.8697H36.8263V78.9727H56.1735V58.8697Z" fill="#B7CAE9"/>
<path d="M56.1737 58.8697H46.5142V78.9727H56.1737V58.8697Z" fill="#96B3D4"/>
<path d="M32.9516 56.6389C33.976 55.9093 36.29 55.1501 37.503 54.7962C38.5123 54.498 38.0941 57.7676 38.4667 61.9624C38.8528 66.306 41.7365 79 41.7365 79H26.0671V70.8484C26.0671 64.7506 29.0134 59.4342 32.9516 56.6389Z" fill="#367992"/>
<path d="M39.8711 52.8583C39.8711 52.8583 34.3688 54.5618 33.1426 56.5906C31.9164 58.6192 31.1808 61.3726 31.1808 61.3726L35.9628 63.4013L32.4214 67.4778L37.1942 78.9727H41.7367C41.7367 78.9727 38.3106 64.4545 38.2321 59.3372C38.2063 57.6606 39.8711 52.8583 39.8711 52.8583Z" fill="#358BA2"/>
<path d="M60.0483 56.6389C59.0238 55.9093 56.7098 55.1501 55.4968 54.7962C54.4875 54.498 54.9058 57.7676 54.5331 61.9624C54.147 66.306 51.2633 79 51.2633 79H66.9329V70.8484C66.9329 64.7506 63.9866 59.4342 60.0483 56.6389Z" fill="#2F697E"/>
<path d="M53.1289 52.8583C53.1289 52.8583 58.6312 54.5618 59.8574 56.5906C61.0836 58.6192 61.8192 61.3726 61.8192 61.3726L57.0372 63.4013L60.5786 67.4778L55.8058 78.9727H51.2633C51.2633 78.9727 54.6894 64.4545 54.7678 59.3372C54.7935 57.6606 53.1289 52.8583 53.1289 52.8583Z" fill="#367992"/>
<path d="M58.6339 35.1345C59.2042 33.3559 58.9532 31.5947 58.0733 31.2007C57.1935 30.8067 56.018 31.9292 55.4478 33.7078C54.8776 35.4864 55.1286 37.2476 56.0084 37.6415C56.8882 38.0355 58.0637 36.9131 58.6339 35.1345Z" fill="#EDCEAE"/>
<path d="M34.3648 35.1339C34.935 36.9125 36.1105 38.035 36.9903 37.641C37.8701 37.247 38.1211 35.4858 37.5509 33.7072C36.9807 31.9286 35.8052 30.8062 34.9254 31.2002C34.0455 31.5941 33.7945 33.3553 34.3648 35.1339Z" fill="#F3DBC4"/>
</g>
<defs>
<clipPath id="clip0_2_1258">
<rect width="55" height="65" fill="white" transform="translate(19 14)"/>
</clipPath>
</defs>
</svg>
