<svg width="93" height="93" viewBox="0 0 93 93" fill="none" xmlns="http://www.w3.org/2000/svg">
<circle cx="46.5" cy="46.5" r="45.5" fill="white" stroke="#EF5DA8" stroke-width="2"/>
<g clip-path="url(#clip0_2_1261)">
<path d="M60.2065 60.394C57.1308 59.0931 51.7281 58.1088 51.7281 44.5486H46.9122H46.088H41.272C41.272 58.1088 35.8693 59.0931 32.7937 60.394C32.7937 69.6175 44.1346 69.901 46.088 70.7607V71.06C46.088 71.06 46.2399 71.0233 46.5001 70.9275C46.7602 71.0233 46.9122 71.06 46.9122 71.06V70.7607C48.8656 69.901 60.2065 69.6175 60.2065 60.394Z" fill="#F3D8B6"/>
<path d="M51.7281 44.5486H46.9121H46.4452V70.9472C46.4633 70.9408 46.4808 70.9348 46.5001 70.9275C46.7602 71.0233 46.9121 71.06 46.9121 71.06V70.7605C48.8656 69.901 60.2065 69.6173 60.2065 60.394C57.1308 59.0931 51.7281 58.1088 51.7281 44.5486Z" fill="#EEC8A2"/>
<path d="M58.2019 36.7016C58.756 34.9732 58.5121 33.2618 57.6571 32.8789C56.8021 32.4961 55.6598 33.5868 55.1057 35.3152C54.5516 37.0435 54.7955 38.7549 55.6505 39.1378C56.5055 39.5206 57.6478 38.4299 58.2019 36.7016Z" fill="#EDCEAE"/>
<path d="M34.6185 36.7012C35.1726 38.4296 36.3149 39.5203 37.1699 39.1375C38.0249 38.7546 38.2688 37.0432 37.7147 35.3148C37.1606 33.5865 36.0183 32.4958 35.1633 32.8786C34.3083 33.2615 34.0644 34.9729 34.6185 36.7012Z" fill="#F3DBC4"/>
<path d="M46.5004 49.1921C41.977 49.1921 38.5245 44.6904 36.9773 41.3145C35.4302 37.9387 34.3596 25.8451 37.6924 20.4997C40.956 15.2651 46.5004 17.8052 46.5004 17.8052C46.5004 17.8052 52.0445 15.2651 55.3083 20.4997C58.6407 25.8451 57.5698 37.9387 56.0225 41.3145C54.4751 44.6904 51.023 49.1921 46.5004 49.1921Z" fill="#F3DBC4"/>
<path d="M55.3083 20.4999C52.0443 15.2651 46.5004 17.8054 46.5004 17.8054C46.5004 17.8054 46.481 17.7966 46.4452 17.7814V49.1905C46.4637 49.1907 46.4818 49.1923 46.5004 49.1923C51.023 49.1923 54.4751 44.6906 56.0227 41.3147C57.5698 37.9389 58.6409 25.8453 55.3083 20.4999Z" fill="#EDCEAE"/>
<path d="M66.2685 71.0786V79H26.7316V71.0786C26.7316 65.1532 29.5947 59.9869 33.4218 57.2706C34.4174 56.5616 36.6659 55.8238 37.8446 55.4799C38.8255 55.1902 46.6492 59.9057 46.6492 59.9057C46.6492 59.9057 54.6688 55.3847 55.6496 55.6746C56.8283 56.0185 58.5827 56.5614 59.5782 57.2706C63.4055 59.9869 66.2685 65.153 66.2685 71.0786Z" fill="#545465"/>
<path d="M59.5784 57.2704C58.5827 56.5614 56.8285 56.0185 55.6498 55.6744C54.669 55.3847 46.6494 59.9055 46.6494 59.9055C46.6494 59.9055 46.5765 59.8617 46.4452 59.7834V78.9998H66.2686V71.0784C66.2686 65.1532 63.4055 59.9869 59.5784 57.2704Z" fill="#494857"/>
<path d="M50.07 60.8049L46.5001 59.4742L42.9302 60.8049L45.2886 62.9453L43.809 78.9998H49.1911L47.7116 62.9453L50.07 60.8049Z" fill="#D7734A"/>
<path d="M50.07 60.8049L46.5001 59.4742L46.4452 59.4946V78.9998H49.1911L47.7116 62.9453L50.07 60.8049Z" fill="#D35D3B"/>
<path d="M54.4362 54.7443L46.5001 59.3087L38.564 54.7443C36.6692 55.8152 40.2769 62.2285 41.0079 61.9164C42.8142 61.1453 46.5001 59.9051 46.5001 59.9051C46.5001 59.9051 50.186 61.1453 51.9923 61.9164C52.7233 62.2285 56.3309 55.8152 54.4362 54.7443Z" fill="white"/>
<path d="M54.4362 54.7443L46.5001 59.3087L46.4452 59.2771V59.9238C46.48 59.9119 46.5001 59.9053 46.5001 59.9053C46.5001 59.9053 50.186 61.1455 51.9923 61.9166C52.7233 62.2285 56.3309 55.8152 54.4362 54.7443Z" fill="#DEDDE0"/>
<path d="M49.1638 45.3094L46.4531 44.5486L43.8365 45.3094L44.2125 49.3091C44.9208 49.6502 45.6865 49.8526 46.5004 49.8526C47.314 49.8526 48.0797 49.6502 48.7878 49.3091L49.1638 45.3094Z" fill="#E1A98C"/>
<path d="M46.4531 44.5486L46.4452 44.551V49.851C46.4637 49.8512 46.4818 49.8528 46.5002 49.8528C47.3138 49.8528 48.0795 49.6504 48.7876 49.3093L49.1636 45.3094L46.4531 44.5486Z" fill="#D2987B"/>
<path d="M55.836 18.9305C55.4803 18.946 53.8124 12.8352 49.3638 14.1982C46.3096 15.134 45.9241 15.6428 44.7307 16.0408C39.8851 14.2856 35.2505 18.8588 35.4225 23.1457C35.7123 30.364 34.6352 30.2539 35.3739 32.7754C36.1125 35.2968 36.7687 37.3331 36.7687 37.3331C36.7687 37.3331 36.9328 38.0273 37.2611 34.0513C37.5893 30.0754 36.4859 27.9413 39.096 27.9413C47.7381 27.9413 35.8505 31.9081 41.3948 31.9081C46.8963 31.9081 51.1492 26.5765 53.7387 26.1888C56.3281 25.8009 55.2455 30.0754 55.5737 34.0513C55.9019 38.0273 56.066 37.3331 56.066 37.3331C56.066 37.3331 57.5357 35.442 57.4609 32.7754C57.3768 29.7662 58.5104 18.8132 55.836 18.9305Z" fill="#E1A98C"/>
<path d="M55.836 18.9307C55.4803 18.9462 53.8124 12.8354 49.3638 14.1984C47.9126 14.6432 47.0644 14.9911 46.4452 15.277V30.5199C49.536 28.9117 52.0091 26.4478 53.7389 26.1888C56.3283 25.8009 55.2456 30.0754 55.5738 34.0513C55.9021 38.0273 56.0662 37.3331 56.0662 37.3331C56.0662 37.3331 57.5358 35.442 57.461 32.7754C57.3768 29.7662 58.5104 18.8132 55.836 18.9307Z" fill="#D2987B"/>
<path d="M58.2019 36.7016C58.756 34.9732 58.5121 33.2618 57.6571 32.8789C56.8021 32.4961 55.6598 33.5868 55.1057 35.3152C54.5516 37.0435 54.7955 38.7549 55.6505 39.1378C56.5055 39.5206 57.6478 38.4299 58.2019 36.7016Z" fill="#EDCEAE"/>
<path d="M34.6185 36.7012C35.1726 38.4296 36.3149 39.5203 37.1699 39.1375C38.0249 38.7546 38.2688 37.0432 37.7147 35.3148C37.1606 33.5865 36.0183 32.4958 35.1633 32.8786C34.3083 33.2615 34.0644 34.9729 34.6185 36.7012Z" fill="#F3DBC4"/>
</g>
<defs>
<clipPath id="clip0_2_1261">
<rect width="55" height="65" fill="white" transform="translate(19 14)"/>
</clipPath>
</defs>
</svg>
