<svg width="93" height="93" viewBox="0 0 93 93" fill="none" xmlns="http://www.w3.org/2000/svg">
<circle cx="46.5" cy="46.5" r="45.5" fill="white" stroke="#EF5DA8" stroke-width="2"/>
<g clip-path="url(#clip0_3_171)">
<path d="M60.2065 60.3941C57.1308 59.0931 51.7281 58.1088 51.7281 44.5486H46.9122H46.088H41.272C41.272 58.1088 35.8693 59.0931 32.7937 60.3941C32.7937 69.6175 44.1346 69.901 46.088 70.7607V71.06C46.088 71.06 46.2399 71.0234 46.5001 70.9276C46.7602 71.0234 46.9122 71.06 46.9122 71.06V70.7607C48.8656 69.901 60.2065 69.6175 60.2065 60.3941Z" fill="#F3D8B6"/>
<path d="M51.7282 44.5486H46.9122H46.4453V70.9472C46.4634 70.9408 46.4809 70.9348 46.5002 70.9276C46.7603 71.0234 46.9122 71.06 46.9122 71.06V70.7605C48.8657 69.901 60.2066 69.6173 60.2066 60.3941C57.1309 59.0931 51.7282 58.1088 51.7282 44.5486Z" fill="#EEC8A2"/>
<path d="M58.202 36.7016C58.7561 34.9732 58.5122 33.2618 57.6572 32.8789C56.8022 32.4961 55.6599 33.5868 55.1058 35.3152C54.5517 37.0435 54.7956 38.755 55.6506 39.1378C56.5056 39.5206 57.6479 38.4299 58.202 36.7016Z" fill="#EDCEAE"/>
<path d="M34.6186 36.7012C35.1727 38.4296 36.3149 39.5203 37.1699 39.1375C38.0249 38.7546 38.2688 37.0432 37.7147 35.3149C37.1606 33.5865 36.0183 32.4958 35.1633 32.8786C34.3084 33.2615 34.0644 34.9729 34.6186 36.7012Z" fill="#F3DBC4"/>
<path d="M46.5006 49.1921C41.9772 49.1921 38.5246 44.6904 36.9775 41.3145C35.4304 37.9387 34.3598 25.8451 37.6926 20.4997C40.9562 15.2651 46.5006 17.8052 46.5006 17.8052C46.5006 17.8052 52.0447 15.2651 55.3084 20.4997C58.6409 25.8451 57.57 37.9387 56.0227 41.3145C54.4752 44.6904 51.0232 49.1921 46.5006 49.1921Z" fill="#F3DBC4"/>
<path d="M55.3084 20.4999C52.0444 15.2651 46.5005 17.8054 46.5005 17.8054C46.5005 17.8054 46.4811 17.7966 46.4453 17.7814V49.1905C46.4638 49.1907 46.4819 49.1923 46.5005 49.1923C51.0231 49.1923 54.4751 44.6906 56.0228 41.3147C57.5699 37.9389 58.641 25.8453 55.3084 20.4999Z" fill="#EDCEAE"/>
<path d="M66.2686 71.0787V79H26.7317V71.0787C26.7317 65.1532 29.5948 59.9869 33.4218 57.2706C34.4175 56.5616 36.666 55.8238 37.8447 55.4799C38.8255 55.1902 46.6493 59.9057 46.6493 59.9057C46.6493 59.9057 54.6689 55.3847 55.6497 55.6747C56.8284 56.0185 58.5828 56.5614 59.5783 57.2706C63.4056 59.9869 66.2686 65.153 66.2686 71.0787Z" fill="#545465"/>
<path d="M59.5785 57.2704C58.5828 56.5614 56.8286 56.0185 55.6499 55.6745C54.6691 55.3847 46.6495 59.9055 46.6495 59.9055C46.6495 59.9055 46.5766 59.8617 46.4453 59.7834V78.9998H66.2686V71.0785C66.2686 65.1532 63.4056 59.9869 59.5785 57.2704Z" fill="#494857"/>
<path d="M50.07 60.8049L46.5001 59.4742L42.9302 60.8049L45.2886 62.9453L43.809 78.9998H49.1911L47.7116 62.9453L50.07 60.8049Z" fill="#D7734A"/>
<path d="M50.0701 60.8049L46.5002 59.4742L46.4453 59.4947V78.9998H49.1912L47.7117 62.9453L50.0701 60.8049Z" fill="#D35D3B"/>
<path d="M54.4362 54.7443L46.5001 59.3087L38.564 54.7443C36.6693 55.8152 40.2769 62.2285 41.0079 61.9164C42.8142 61.1453 46.5001 59.9051 46.5001 59.9051C46.5001 59.9051 50.186 61.1453 51.9923 61.9164C52.7233 62.2285 56.331 55.8152 54.4362 54.7443Z" fill="white"/>
<path d="M54.4363 54.7443L46.5002 59.3087L46.4453 59.2771V59.9238C46.4801 59.9119 46.5002 59.9053 46.5002 59.9053C46.5002 59.9053 50.1861 61.1455 51.9924 61.9166C52.7234 62.2285 56.331 55.8152 54.4363 54.7443Z" fill="#DEDDE0"/>
<path d="M49.1639 45.3094L46.4533 44.5486L43.8367 45.3094L44.2127 49.3091C44.921 49.6503 45.6866 49.8526 46.5005 49.8526C47.3141 49.8526 48.0798 49.6503 48.7879 49.3091L49.1639 45.3094Z" fill="#E1A98C"/>
<path d="M46.4532 44.5486L46.4453 44.551V49.851C46.4638 49.8512 46.4819 49.8528 46.5003 49.8528C47.3139 49.8528 48.0796 49.6505 48.7877 49.3093L49.1637 45.3094L46.4532 44.5486Z" fill="#D2987B"/>
<path d="M55.8361 18.9305C55.4804 18.9461 53.8125 12.8352 49.364 14.1982C46.3098 15.134 45.9242 15.6428 44.7309 16.0408C39.8852 14.2857 35.2506 18.8588 35.4226 23.1457C35.7124 30.364 34.6354 30.2539 35.374 32.7754C36.1127 35.2968 36.7689 37.3331 36.7689 37.3331C36.7689 37.3331 36.933 38.0273 37.2612 34.0513C37.5894 30.0754 36.486 27.9413 39.0962 27.9413C47.7383 27.9413 35.8507 31.9081 41.3949 31.9081C46.8965 31.9081 51.1493 26.5765 53.7389 26.1888C56.3283 25.8009 55.2456 30.0754 55.5738 34.0513C55.902 38.0273 56.0661 37.3331 56.0661 37.3331C56.0661 37.3331 57.5358 35.442 57.461 32.7754C57.377 29.7662 58.5106 18.8133 55.8361 18.9305Z" fill="#E1A98C"/>
<path d="M55.8361 18.9307C55.4804 18.9462 53.8125 12.8354 49.3639 14.1984C47.9127 14.6432 47.0645 14.9911 46.4453 15.277V30.5199C49.5361 28.9118 52.0092 26.4478 53.739 26.1888C56.3284 25.8009 55.2457 30.0754 55.5739 34.0514C55.9022 38.0273 56.0663 37.3331 56.0663 37.3331C56.0663 37.3331 57.5359 35.442 57.4611 32.7754C57.3769 29.7662 58.5105 18.8133 55.8361 18.9307Z" fill="#D2987B"/>
<path d="M58.202 36.7016C58.7561 34.9732 58.5122 33.2618 57.6572 32.8789C56.8022 32.4961 55.6599 33.5868 55.1058 35.3152C54.5517 37.0435 54.7956 38.755 55.6506 39.1378C56.5056 39.5206 57.6479 38.4299 58.202 36.7016Z" fill="#EDCEAE"/>
<path d="M34.6186 36.7012C35.1727 38.4296 36.3149 39.5203 37.1699 39.1375C38.0249 38.7546 38.2688 37.0432 37.7147 35.3149C37.1606 33.5865 36.0183 32.4958 35.1633 32.8786C34.3084 33.2615 34.0644 34.9729 34.6186 36.7012Z" fill="#F3DBC4"/>
</g>
<defs>
<clipPath id="clip0_3_171">
<rect width="55" height="65" fill="white" transform="translate(19 14)"/>
</clipPath>
</defs>
</svg>
